<?xml version="1.0" encoding="UTF-8" standalone="no"?>
<svg width="127px" height="64px" viewBox="0 0 127 64" version="1.1" xmlns="http://www.w3.org/2000/svg" xmlns:xlink="http://www.w3.org/1999/xlink" xmlns:sketch="http://www.bohemiancoding.com/sketch/ns">
  <!-- Generator: Sketch 3.3.3 (12081) - http://www.bohemiancoding.com/sketch -->
  <title>hoyre_logo</title>
  <desc>Created with Sketch.</desc>
  <defs>
    <path id="path-1" d="M0,70.8643617 L137.915039,70.8643617 L137.915039,0 L0,0 L0,70.8643617 L0,70.8643617 Z"></path>
  </defs>
  <g id="Page-1" stroke="none" stroke-width="1" fill="none" fill-rule="evenodd" sketch:type="MSPage">
    <g id="hoyre_logo" sketch:type="MSLayerGroup" transform="translate(-8.000000, -4.000000)">
      <g id="layer1" transform="translate(0.180015, 0.375251)">
        <g id="g3135" transform="translate(69.526029, 36.083051) scale(1, -1) translate(-69.526029, -36.083051) translate(0.141263, 0.165498)">
          <g id="g3206" transform="translate(0.559330, 0.501985)">
            <g id="g3208">
              <g id="g3210-Clipped">
                <mask id="mask-2" sketch:name="path3214" fill="white">
                  <use xlink:href="#path-1"></use>
                </mask>
                <g id="path3214"></g>
                <g id="g3210" mask="url(#mask-2)">
                  <g transform="translate(7.519531, 3.882979)">
                    <g id="g3216" transform="translate(80.895732, 26.241105)">
                      <path d="M10.9375,5.82446809 C10.4699219,6.99389184 6.19472656,7.15309397 0.293945312,6.41856383 L1.45810547,0.0569503546 C7.56738281,2.13757979 11.4317383,4.56703014 10.9375,5.82446809" id="path3218" fill="#145194" sketch:type="MSShapeGroup"></path>
                    </g>
                    <g id="g3220" transform="translate(82.343037, 25.105981)">
                      <path d="M10.2539062,25.2393617 L13.8133789,8.58656028 C13.8666992,8.29921986 13.8291016,7.98469858 13.6875977,7.64558511 C12.8679687,5.53389184 7.12167969,2.51164007 0.0717773438,0.838076241 L0.176367188,0.279574468 C13.7251953,1.0581117 28.6015625,3.33547872 43.7151367,9.39292553 L37.912793,38.2253369 C28.9166992,32.4972961 18.8979492,27.9593883 10.2539062,25.2393617" id="path3222" fill="#B8D3EB" sketch:type="MSShapeGroup"></path>
                    </g>
                    <g id="g3224" transform="translate(0.090098, 4.724809)">
                      <path d="M91.6015625,48.537234 L91.5933594,48.5288209 C90.1379883,52.6641933 84.4081055,57.1386791 67.8412109,56.7575 L67.8494141,56.7626773 C45.4425781,56.2358865 25.1001953,51.012633 0.259765625,39.7714096 L8.01923828,0.239450355 C10.8951172,2.22171099 14.6418945,4.68869681 19.3723633,7.59575355 C27.5501953,12.628094 35.7211914,16.7298138 40.8399414,19.1689716 C49.6870117,23.4732535 58.5969727,26.6961259 67.262207,29.0181472 C71.1204102,30.1629787 75.9910156,31.0683599 80.9819336,31.4637766 C89.8816406,32.1879521 95.6894531,31.2715691 96.0661133,28.9676684 L92.5066406,45.6204699 L91.6015625,48.537234 L91.6015625,48.537234 Z" id="path3226" fill="#145194" sketch:type="MSShapeGroup"></path>
                    </g>
                    <g id="g3228" transform="translate(44.194609, 0.939746)">
                      <path d="M10.2539062,10.3546099 L10.2539062,13.7522163 C10.2539062,17.0210372 13.7381836,17.0288032 13.7381836,17.0288032 C13.7381836,17.0288032 13.7313477,0.0944858156 13.7381836,0.0944858156 L10.2539062,0.0944858156 L10.2539062,7.66111702 L3.79873047,7.66111702 L3.79873047,3.37236702 C3.79873047,0.146906028 0.317871094,0.0944858156 0.317871094,0.0944858156 L0.317871094,13.7522163 C0.317871094,17.0210372 3.79873047,17.0288032 3.79873047,17.0288032 L3.79873047,10.3546099 L10.2539062,10.3546099 L10.2539062,10.3546099 Z" id="path3230" fill="#145194" sketch:type="MSShapeGroup"></path>
                    </g>
                    <g id="g3232" transform="translate(82.126680, 0.494821)">
                      <path d="M0,17.4734043 L4.06396484,17.4734043 L7.19140625,11.5868085 L10.6039062,17.4734043 L14.6863281,17.4734043 L9.03095703,8.30957447 L9.03095703,3.40666667 C9.03095703,0.591507092 5.55146484,0.539734043 5.55146484,0.539734043 L5.55146484,8.30957447 L0,17.4734043 L0,17.4734043 Z" id="path3234" fill="#145194" sketch:type="MSShapeGroup"></path>
                    </g>
                    <g id="g3236" transform="translate(99.091084, 0.413926)">
                      <path d="M7.51953125,7.76595745 C9.91210937,8.14519504 11.1671875,10.3002482 11.1671875,12.4591844 C11.1671875,16.0703546 8.72128906,17.5542996 5.19667969,17.5542996 C5.19667969,17.5542996 3.96279297,17.5633599 3.93339844,17.5633599 C3.9265625,17.5633599 0.473730469,17.5465337 0.473730469,14.6051773 L0.473730469,0.620629433 C0.473730469,0.620629433 3.95732422,0.672402482 3.95732422,3.48756206 L3.95732422,7.44755319 L4.00791016,7.44755319 L8.34736328,0.620629433 L12.5665039,0.620629433 L7.51953125,7.76595745 L7.51953125,7.76595745 Z M3.95732422,14.8543351 L4.43105469,14.8543351 C6.27949219,14.8543351 7.68359375,14.4576241 7.68359375,12.3666401 C7.68359375,10.3002482 6.32871094,9.76051418 4.40439453,9.76051418 L3.95732422,9.76051418 L3.95732422,14.8543351 L3.95732422,14.8543351 Z" id="path3238" fill="#145194" sketch:type="MSShapeGroup"></path>
                    </g>
                    <g id="g3240" transform="translate(114.812373, 0.851278)">
                      <path d="M4.1015625,14.2375887 L4.1015625,10.5138121 L9.65439453,10.5138121 L9.65439453,7.64234929 L4.1015625,7.64234929 L4.1015625,3.0604344 L9.86835937,3.0604344 C9.84648437,3.0604344 9.92646484,0.12231383 6.39160156,0.12231383 C6.35947266,0.12231383 0.6125,0.112606383 0.6125,0.112606383 L0.6125,14.1683422 C0.6125,14.1592819 0.647363281,17.1258777 4.05507812,17.1258777 L9.86835937,17.1168174 L9.86835937,14.2375887 L4.1015625,14.2375887 L4.1015625,14.2375887 Z" id="path3242" fill="#145194" sketch:type="MSShapeGroup"></path>
                    </g>
                    <g id="g3244" transform="translate(62.014121, 0.451849)">
                      <path d="M14.3554688,9.06028369 C14.3554688,5.96619681 12.0134766,3.45973404 9.12734375,3.45973404 C7.95224609,3.45973404 6.87490234,3.87780142 6.00126953,4.57285461 L13.6664063,11.830789 C14.1018555,11.0147163 14.3554688,10.0705053 14.3554688,9.06028369 L14.3554688,9.06028369 Z M9.12734375,14.6647163 C10.4835938,14.6647163 11.7174805,14.1062145 12.6464844,13.1937145 L4.86513672,5.82317376 C4.25878906,6.73437943 3.89853516,7.85203014 3.89853516,9.06028369 C3.89853516,12.1517819 6.23779297,14.6647163 9.12734375,14.6647163 L9.12734375,14.6647163 Z M18.6757813,16.5660816 C16.2743164,16.5660816 15.1258789,15.5422695 15.1258789,15.5422695 C13.5474609,16.9854433 11.4419922,17.8778812 9.12734375,17.8778812 C4.22460938,17.8778812 0.248144531,13.925656 0.248144531,9.06028369 C0.248144531,6.90911348 1.02402344,4.94238475 2.31259766,3.41054965 C2.31259766,3.41054965 0.292578125,1.52536348 0.320605469,1.52536348 C2.97226562,1.52536348 3.521875,2.22429965 3.521875,2.22429965 C5.05244141,0.985629433 7.00136719,0.241391844 9.12734375,0.241391844 C14.0259766,0.241391844 18.0044922,4.19167553 18.0044922,9.06028369 C18.0044922,11.0192465 17.3543945,12.8222429 16.2647461,14.286773 L18.6757812,16.5660816 L18.6757813,16.5660816 Z" id="path3246" fill="#145194" sketch:type="MSShapeGroup"></path>
                    </g>
                  </g>
                </g>
              </g>
            </g>
          </g>
        </g>
      </g>
    </g>
  </g>
</svg>